<mxfile host="app.diagrams.net" modified="2023-03-30T08:31:27.049Z" agent="Mozilla/5.0 (Windows NT 10.0; Win64; x64) AppleWebKit/537.36 (KHTML, like Gecko) Chrome/111.0.0.0 Safari/537.36" etag="sslrFOMO_A0m6ZxcjlHb" version="21.1.1" type="github">
  <diagram name="第 1 页" id="rKnI7sO-gIZCA3sRg8R7">
    <mxGraphModel dx="1562" dy="965" grid="1" gridSize="10" guides="1" tooltips="1" connect="1" arrows="1" fold="1" page="1" pageScale="1" pageWidth="827" pageHeight="1169" math="0" shadow="0">
      <root>
        <mxCell id="0" />
        <mxCell id="1" parent="0" />
        <mxCell id="6DySjd46oNnkzPPCSeN0-4" value="" style="swimlane;startSize=0;" vertex="1" parent="1">
          <mxGeometry x="80" y="120" width="700" height="580" as="geometry" />
        </mxCell>
        <mxCell id="6DySjd46oNnkzPPCSeN0-5" value="单据能力中心" style="text;html=1;align=center;verticalAlign=middle;resizable=0;points=[];autosize=1;strokeColor=none;fillColor=none;" vertex="1" parent="6DySjd46oNnkzPPCSeN0-4">
          <mxGeometry x="60" y="75" width="100" height="30" as="geometry" />
        </mxCell>
        <mxCell id="6DySjd46oNnkzPPCSeN0-1" value="" style="swimlane;startSize=0;" vertex="1" parent="6DySjd46oNnkzPPCSeN0-4">
          <mxGeometry x="70" y="80" width="450" height="210" as="geometry" />
        </mxCell>
        <mxCell id="6DySjd46oNnkzPPCSeN0-9" style="edgeStyle=orthogonalEdgeStyle;rounded=0;orthogonalLoop=1;jettySize=auto;html=1;" edge="1" parent="6DySjd46oNnkzPPCSeN0-1" source="6DySjd46oNnkzPPCSeN0-2" target="6DySjd46oNnkzPPCSeN0-3">
          <mxGeometry relative="1" as="geometry" />
        </mxCell>
        <mxCell id="6DySjd46oNnkzPPCSeN0-2" value="FormValidationService" style="rounded=1;whiteSpace=wrap;html=1;" vertex="1" parent="6DySjd46oNnkzPPCSeN0-1">
          <mxGeometry x="40" y="60" width="150" height="60" as="geometry" />
        </mxCell>
        <mxCell id="6DySjd46oNnkzPPCSeN0-3" value="FormValidator" style="rounded=1;whiteSpace=wrap;html=1;" vertex="1" parent="6DySjd46oNnkzPPCSeN0-1">
          <mxGeometry x="250" y="60" width="140" height="60" as="geometry" />
        </mxCell>
        <mxCell id="6DySjd46oNnkzPPCSeN0-6" value="DimensionMemberValidator" style="rounded=1;whiteSpace=wrap;html=1;" vertex="1" parent="6DySjd46oNnkzPPCSeN0-4">
          <mxGeometry x="30" y="405" width="190" height="60" as="geometry" />
        </mxCell>
        <mxCell id="6DySjd46oNnkzPPCSeN0-7" value="DimensionMappingValidator" style="rounded=1;whiteSpace=wrap;html=1;" vertex="1" parent="6DySjd46oNnkzPPCSeN0-4">
          <mxGeometry x="260" y="405" width="170" height="60" as="geometry" />
        </mxCell>
        <mxCell id="6DySjd46oNnkzPPCSeN0-8" value="......" style="rounded=1;whiteSpace=wrap;html=1;" vertex="1" parent="6DySjd46oNnkzPPCSeN0-4">
          <mxGeometry x="470" y="405" width="210" height="60" as="geometry" />
        </mxCell>
        <mxCell id="6DySjd46oNnkzPPCSeN0-21" value="" style="endArrow=none;html=1;rounded=0;" edge="1" parent="6DySjd46oNnkzPPCSeN0-4">
          <mxGeometry width="50" height="50" relative="1" as="geometry">
            <mxPoint x="570" y="330" as="sourcePoint" />
            <mxPoint x="570" y="400" as="targetPoint" />
          </mxGeometry>
        </mxCell>
        <mxCell id="6DySjd46oNnkzPPCSeN0-19" value="" style="endArrow=none;html=1;rounded=0;" edge="1" parent="1" target="6DySjd46oNnkzPPCSeN0-7">
          <mxGeometry width="50" height="50" relative="1" as="geometry">
            <mxPoint x="425" y="450" as="sourcePoint" />
            <mxPoint x="430" y="370" as="targetPoint" />
          </mxGeometry>
        </mxCell>
        <mxCell id="6DySjd46oNnkzPPCSeN0-20" value="" style="endArrow=none;html=1;rounded=0;exitX=0.467;exitY=0.013;exitDx=0;exitDy=0;exitPerimeter=0;" edge="1" parent="1" source="6DySjd46oNnkzPPCSeN0-6">
          <mxGeometry width="50" height="50" relative="1" as="geometry">
            <mxPoint x="460" y="450" as="sourcePoint" />
            <mxPoint x="650" y="450" as="targetPoint" />
            <Array as="points">
              <mxPoint x="200" y="520" />
              <mxPoint x="200" y="450" />
              <mxPoint x="650" y="450" />
            </Array>
          </mxGeometry>
        </mxCell>
        <mxCell id="6DySjd46oNnkzPPCSeN0-23" value="" style="endArrow=classic;html=1;rounded=0;entryX=0.5;entryY=1;entryDx=0;entryDy=0;" edge="1" parent="1" target="6DySjd46oNnkzPPCSeN0-3">
          <mxGeometry width="50" height="50" relative="1" as="geometry">
            <mxPoint x="350" y="450" as="sourcePoint" />
            <mxPoint x="440" y="370" as="targetPoint" />
            <Array as="points">
              <mxPoint x="440" y="450" />
              <mxPoint x="470" y="450" />
            </Array>
          </mxGeometry>
        </mxCell>
      </root>
    </mxGraphModel>
  </diagram>
</mxfile>
